<svg width="123" height="30" viewBox="0 0 123 30" fill="none" xmlns="http://www.w3.org/2000/svg">
<path d="M43.2644 8.04739C43.1092 6.70142 42.4691 5.65877 41.344 4.91943C40.2189 4.17062 38.8029 3.79621 37.0959 3.79621C35.8738 3.79621 34.8166 3.98578 33.9243 4.36493C33.032 4.7346 32.3385 5.24645 31.8439 5.90047C31.3589 6.54502 31.1164 7.27962 31.1164 8.10427C31.1164 8.79621 31.2813 9.39336 31.6111 9.89573C31.9506 10.3981 32.3919 10.8199 32.935 11.1611C33.4878 11.4929 34.0795 11.7725 34.7099 12C35.3403 12.218 35.9465 12.3981 36.5285 12.5403L39.4382 13.2796C40.3887 13.5071 41.3634 13.8152 42.3624 14.2038C43.3614 14.5924 44.2877 15.1043 45.1412 15.7393C45.9947 16.3744 46.6833 17.1611 47.2071 18.0995C47.7405 19.0379 48.0072 20.1611 48.0072 21.4692C48.0072 23.1185 47.5708 24.5829 46.6979 25.8626C45.8347 27.1422 44.5786 28.1517 42.9298 28.891C41.2907 29.6303 39.3072 30 36.9795 30C34.7487 30 32.8186 29.654 31.1892 28.9621C29.5598 28.2701 28.2843 27.2891 27.3629 26.019C26.4415 24.7393 25.9323 23.2227 25.8353 21.4692H30.3454C30.4327 22.5213 30.7818 23.3981 31.3929 24.0995C32.0136 24.7915 32.8041 25.3081 33.7643 25.6493C34.7342 25.981 35.7962 26.1469 36.9504 26.1469C38.221 26.1469 39.3509 25.9526 40.3402 25.564C41.3392 25.1659 42.1248 24.6161 42.697 23.9147C43.2693 23.2038 43.5554 22.3744 43.5554 21.4265C43.5554 20.564 43.3032 19.8578 42.7989 19.3081C42.3042 18.7583 41.6301 18.3033 40.7766 17.9431C39.9328 17.5829 38.9775 17.2654 37.9106 16.9905L34.3898 16.0521C32.0039 15.4171 30.1126 14.4834 28.7159 13.2512C27.329 12.019 26.6355 10.3886 26.6355 8.36019C26.6355 6.68246 27.1011 5.21801 28.0322 3.96682C28.9633 2.71564 30.2241 1.74408 31.8148 1.05213C33.4054 0.350711 35.1997 0 37.1977 0C39.2151 0 40.9949 0.345972 42.537 1.03792C44.0888 1.72986 45.3109 2.68247 46.2032 3.89573C47.0955 5.09953 47.5611 6.48341 47.5999 8.04739H43.2644Z" fill="#212121"/>
<path d="M74.439 9.8673H69.8999C69.7253 8.91943 69.4004 8.08531 68.9252 7.36493C68.4499 6.64455 67.868 6.03318 67.1794 5.5308C66.4907 5.02844 65.7197 4.64929 64.8661 4.39336C64.0223 4.13744 63.1252 4.00948 62.1747 4.00948C60.458 4.00948 58.9207 4.43128 57.5628 5.27488C56.2147 6.11848 55.1478 7.35545 54.3621 8.98578C53.5862 10.6161 53.1983 12.6066 53.1983 14.9573C53.1983 17.327 53.5862 19.327 54.3621 20.9573C55.1478 22.5877 56.2195 23.8199 57.5774 24.654C58.9352 25.4882 60.4628 25.9052 62.1601 25.9052C63.1009 25.9052 63.9932 25.782 64.8371 25.5355C65.6906 25.2796 66.4616 24.9052 67.1503 24.4123C67.8389 23.9194 68.4208 23.3175 68.8961 22.6066C69.381 21.8863 69.7156 21.0616 69.8999 20.1327L74.439 20.1469C74.1966 21.5782 73.7262 22.8957 73.0278 24.0995C72.3392 25.2938 71.4518 26.327 70.3655 27.1991C69.2889 28.0616 68.0571 28.7299 66.6702 29.2038C65.2832 29.6777 63.7702 29.9147 62.131 29.9147C59.5511 29.9147 57.2524 29.3175 55.2351 28.1232C53.2177 26.9194 51.627 25.1991 50.4632 22.9621C49.309 20.7251 48.7319 18.0569 48.7319 14.9573C48.7319 11.8483 49.3138 9.18009 50.4777 6.95261C51.6416 4.71564 53.2322 3 55.2496 1.80569C57.267 0.601896 59.5608 0 62.131 0C63.712 0 65.1862 0.222749 66.5538 0.668248C67.931 1.10427 69.1677 1.74881 70.2636 2.6019C71.3596 3.4455 72.2665 4.47867 72.9842 5.70142C73.7019 6.91469 74.1869 8.30332 74.439 9.8673Z" fill="#212121"/>
<path d="M100.93 29.5166V0.398104H111.55C113.859 0.398104 115.774 0.78673 117.297 1.56398C118.829 2.34123 119.974 3.41706 120.73 4.79147C121.487 6.1564 121.865 7.7346 121.865 9.52607C121.865 11.3081 121.482 12.8768 120.716 14.2322C119.959 15.5782 118.815 16.6256 117.282 17.3744C115.76 18.1232 114.586 18.4976 112.278 18.4976H111.827L109.742 14.7156H111.128C112.583 14.7156 113.767 14.5118 114.678 14.1043C115.6 13.6967 116.274 13.1043 116.701 12.327C117.127 11.5498 117.341 10.6161 117.341 9.52607C117.341 8.42654 117.122 7.47393 116.686 6.66825C116.259 5.86256 115.585 5.24645 114.664 4.81991C113.752 4.38389 112.554 4.16588 111.07 4.16588H105.425V29.5166H100.93ZM115.638 16.3791L123 29.5166H117.879L110.663 16.3791H115.638Z" fill="#212121"/>
<path fill-rule="evenodd" clip-rule="evenodd" d="M0 29.5166H4.7719L7.5007 21.8104L8.80971 18.1137L13.21 5.6872H13.4428L17.8355 18.1137L19.1423 21.8104L21.8664 29.5166H26.6383L15.916 0.398104H10.7222L0 29.5166Z" fill="#212121"/>
<path fill-rule="evenodd" clip-rule="evenodd" d="M73.6761 29.5166H78.448L81.1768 21.8104L82.4858 18.1137L86.8862 5.6872H87.1189L91.5117 18.1137L92.8184 21.8104L95.5425 29.5166H100.314L89.5922 0.398104H84.3984L73.6761 29.5166Z" fill="#212121"/>
</svg>
